<?xml version="1.0" encoding="utf-8"?>
<!-- Generator: Adobe Illustrator 15.1.0, SVG Export Plug-In . SVG Version: 6.00 Build 0)  -->
<!DOCTYPE svg PUBLIC "-//W3C//DTD SVG 1.1//EN" "http://www.w3.org/Graphics/SVG/1.1/DTD/svg11.dtd">
<svg version="1.1" id="Layer_1" xmlns="http://www.w3.org/2000/svg" xmlns:xlink="http://www.w3.org/1999/xlink" x="0px" y="0px"
	 width="100px" height="100px" viewBox="0 0 100 100" enable-background="new 0 0 100 100" xml:space="preserve">
<path fill="#FFFFFF" d="M0,77.854l27.805,11.121V11.122L0,0V77.854z M8.22,26.938l3.835,1.363l1.082,2.234
	c0.315,0.676,0.609,1.321,0.902,1.966l0.044,0.016c0.293-0.504,0.563-0.949,0.857-1.386l0.97-1.46l3.721,1.323L16,34.957l3.676,7.08
	l-3.878-1.379l-1.106-2.377c-0.316-0.653-0.586-1.313-0.857-1.973l-0.067-0.025c-0.27,0.49-0.563,0.928-0.835,1.373l-1.036,1.616
	L8.13,37.935l3.743-4.286L8.22,26.938z"/>
<polygon fill="#FFFFFF" points="68.195,0 68.195,77.854 96,88.975 96,11.122 "/>
<polygon fill="#FFFFFF" points="31.317,88.975 64.684,77.854 64.684,0 31.317,11.122 "/>
</svg>
